<?xml version="1.0" encoding="utf-8"?>
<!-- Generator: Adobe Illustrator 16.0.0, SVG Export Plug-In . SVG Version: 6.00 Build 0)  -->
<!DOCTYPE svg PUBLIC "-//W3C//DTD SVG 1.1//EN" "http://www.w3.org/Graphics/SVG/1.1/DTD/svg11.dtd">
<svg version="1.1" id="Layer_1" xmlns="http://www.w3.org/2000/svg" xmlns:xlink="http://www.w3.org/1999/xlink" x="0px" y="0px"
	 width="64px" height="64px" viewBox="0 0 64 64" enable-background="new 0 0 64 64" xml:space="preserve">
<rect display="none" fill="#42444E" width="64" height="64.07"/>
<g>
	<path fill="#F6E48C" d="M26,9c0,0.552-0.448,1-1,1H7c-0.552,0-1-0.448-1-1l0,0c0-0.552,0.448-1,1-1h18C25.552,8,26,8.448,26,9L26,9
		z"/>
	<path fill="#F6E48C" d="M26,23c0,0.553-0.447,1-1,1H7c-0.552,0-1-0.447-1-1l0,0c0-0.552,0.448-1,1-1h18C25.553,22,26,22.448,26,23
		L26,23z"/>
	<path fill="#F6E48C" d="M26,16c0,0.553-0.447,1-1,1H7c-0.552,0-1-0.447-1-1l0,0c0-0.552,0.448-1,1-1h18C25.553,15,26,15.448,26,16
		L26,16z"/>
</g>
<g>
	<path fill="#FFFFFF" d="M26,41.035c0,0.552-0.447,1-1,1H7c-0.552,0-1-0.448-1-1l0,0c0-0.553,0.448-1,1-1h18
		C25.553,40.035,26,40.482,26,41.035L26,41.035z"/>
	<path fill="#FFFFFF" d="M26,55.035c0,0.553-0.447,1-1,1H7c-0.552,0-1-0.447-1-1l0,0c0-0.553,0.448-1,1-1h18
		C25.553,54.035,26,54.482,26,55.035L26,55.035z"/>
	<path fill="#FFFFFF" d="M26,48.035c0,0.553-0.447,1-1,1H7c-0.552,0-1-0.447-1-1l0,0c0-0.553,0.448-1,1-1h18
		C25.553,47.035,26,47.482,26,48.035L26,48.035z"/>
</g>
<g>
	<path fill="#F6E48C" d="M55.07,8.929c0.391,0.391,0.392,1.023,0,1.414L42.344,23.071c-0.392,0.391-1.023,0.391-1.414,0l0,0
		c-0.391-0.391-0.392-1.023,0-1.414L53.656,8.929C54.048,8.538,54.682,8.539,55.07,8.929L55.07,8.929z"/>
	<path fill="#F6E48C" d="M55.07,23.071c-0.391,0.391-1.021,0.391-1.414,0L40.93,10.343c-0.392-0.391-0.392-1.023,0-1.414l0,0
		c0.391-0.389,1.022-0.391,1.414,0l12.729,12.729C55.463,22.048,55.461,22.681,55.07,23.071L55.07,23.071z"/>
</g>
<g>
	<path fill="#FFFFFF" d="M55.07,40.964c0.391,0.392,0.392,1.022,0,1.414L42.344,55.105c-0.392,0.392-1.023,0.392-1.414,0l0,0
		c-0.391-0.391-0.392-1.022,0-1.414l12.727-12.729C54.048,40.572,54.682,40.574,55.07,40.964L55.07,40.964z"/>
	<path fill="#FFFFFF" d="M55.07,55.105c-0.391,0.392-1.021,0.392-1.414,0L40.93,42.378c-0.392-0.392-0.392-1.022,0-1.414l0,0
		c0.391-0.389,1.022-0.392,1.414,0l12.729,12.729C55.463,54.083,55.461,54.716,55.07,55.105L55.07,55.105z"/>
</g>
</svg>
